HIERARCHY
ROOT Hips
{
	OFFSET 0.00000 0.00000 0.00000
	CHANNELS 6 Xposition Yposition Zposition Zrotation Yrotation Xrotation 
	JOINT LHipJoint
	{
		OFFSET 0 0 0
		CHANNELS 3 Zrotation Yrotation Xrotation
		JOINT LeftHip
		{
			OFFSET 1.59801 -1.77853 0.57028
			CHANNELS 3 Zrotation Yrotation Xrotation
			JOINT LeftKnee
			{
				OFFSET 2.39439 -6.57854 0.00000
				CHANNELS 3 Zrotation Yrotation Xrotation
				JOINT LeftAnkle
				{
					OFFSET 2.69334 -7.39989 0.00000
					CHANNELS 3 Zrotation Yrotation Xrotation
					JOINT LeftToe
					{
						OFFSET 0.09553 -0.26245 1.73747
						CHANNELS 3 Zrotation Yrotation Xrotation
						End Site
						{
							OFFSET 0.00000 -0.00000 0.89391
						}
					}
				}
			}
		}
	}
	JOINT RHipJoint
	{
		OFFSET 0 0 0
		CHANNELS 3 Zrotation Yrotation Xrotation
		JOINT RightHip
		{
			OFFSET -1.54704 -1.77852 0.57028
			CHANNELS 3 Zrotation Yrotation Xrotation
			JOINT RightKnee
			{
				OFFSET -2.40286 -6.60180 0.00000
				CHANNELS 3 Zrotation Yrotation Xrotation
				JOINT RightAnkle
				{
					OFFSET -2.63873 -7.24984 0.00000
					CHANNELS 3 Zrotation Yrotation Xrotation
					JOINT RightToe
					{
						OFFSET -0.15631 -0.42945 1.84436
						CHANNELS 3 Zrotation Yrotation Xrotation
						End Site
						{
							OFFSET -0.00000 -0.00000 0.95734
						}
					}
				}
			}
		}
	}
	JOINT lowerback
	{
		OFFSET 0 0 0
		CHANNELS 3 Zrotation Yrotation Xrotation
		JOINT Chest
		{
			OFFSET -0.00436 1.89866 -0.04018
			CHANNELS 3 Zrotation Yrotation Xrotation
			JOINT Chest2
			{
				OFFSET 0.02031 1.88273 0.09634
				CHANNELS 3 Zrotation Yrotation Xrotation
				JOINT lowerneck
				{
					OFFSET 0 0 0
					CHANNELS 3 Zrotation Yrotation Xrotation
					JOINT Neck
					{
						OFFSET -0.13105 1.89371 0.23083
						CHANNELS 3 Zrotation Yrotation Xrotation
						JOINT Head
						{
							OFFSET 0.17062 1.83990 -0.54062
							CHANNELS 3 Zrotation Yrotation Xrotation
							End Site
							{
								OFFSET 0.04576 1.94782 -0.21839
							}
						}
					}
				}
				JOINT LeftCollar
				{
					OFFSET 0 0 0
					CHANNELS 3 Zrotation Yrotation Xrotation
					JOINT LeftShoulder
					{
						OFFSET 3.12424 1.09204 0.22226
CHANNELS 3 Zrotation Xrotation Yrotation
						JOINT LeftElbow
						{
OFFSET 0 -5.292770 0.000000
CHANNELS 3 Zrotation Xrotation Yrotation
							JOINT LeftWrist
							{
OFFSET 0 -2.852260 0.000000
CHANNELS 3 Zrotation Xrotation Yrotation
								JOINT lhand
								{
									OFFSET 0 0 0
CHANNELS 3 Zrotation Xrotation Yrotation
									JOINT LFingers
									{
OFFSET 0 -0.602100 0.000000
CHANNELS 3 Zrotation Xrotation Yrotation
										End Site
										{
OFFSET 0 -0.485430 0.000000
										}
									}
								}
								JOINT LThumb
								{
OFFSET 0 0.000000 0.000000
CHANNELS 3 Zrotation Xrotation Yrotation
									End Site
									{
OFFSET 0 -0.492840 0.492840
									}
								}
							}
						}
					}
				}
				JOINT RightCollar
				{
					OFFSET 0 0 0
					CHANNELS 3 Zrotation Yrotation Xrotation
					JOINT RightShoulder
					{
						OFFSET -2.91709 1.01504 0.30199
CHANNELS 3 Zrotation Xrotation Yrotation
						JOINT RightElbow
						{
OFFSET 0 -5.133040 0.000000
CHANNELS 3 Zrotation Xrotation Yrotation
							JOINT RightWrist
							{
OFFSET 0 -2.743050 0.000000
CHANNELS 3 Zrotation Xrotation Yrotation
								JOINT rhand
								{
									OFFSET 0 0 0
CHANNELS 3 Zrotation Xrotation Yrotation
									JOINT RFingers
									{
OFFSET 0 -0.767980 0.000000
CHANNELS 3 Zrotation Xrotation Yrotation
										End Site
										{
OFFSET 0 -0.619160 0.000000
										}
									}
								}
								JOINT RThumb
								{
OFFSET 0 0.000000 0.000000
CHANNELS 3 Zrotation Xrotation Yrotation
									End Site
									{
OFFSET 0 -0.628620 0.628620
									}
								}
							}
						}
					}
				}
			}
		}
	}
}
MOTION
Frames: 4
Frame Time: 0.008333333333333333
-0.320417 17.346675 -0.268239 -1.809098 3.558877 -0.776882 0.000000 0.000000 0.000000 -16.866365 -16.073940 4.494026 0.889934 6.013007 16.822276 0.769847 1.131664 -17.021936 0.842638 -5.854724 -16.363643 0.000000 0.000000 0.000000 24.331940 8.845398 9.222698 -0.188470 -2.795784 7.710691 0.103039 -11.613308 -14.994341 -0.375061 3.933436 -10.889517 0.714449 -0.175533 -1.399256 -5.569671 -0.265402 -1.526533 -6.176812 -0.170847 -0.817216 -19.361280 -11.591561 -13.443698 3.637986 -12.382913 17.381292 2.654993 -6.755083 9.171115 0.000000 0.000000 0.000000 63.582818 -28.909703 -3.868600 149.216857 -41.555271 108.074271 18.949537 14.038417 -10.419788 0.000000 0.000000 0.000000 -7.125000 0.000000 0.000000 -7.167190 40.878346 -0.732725 0.000000 0.000000 0.000000 -98.937578 -9.814431 -5.848364 -152.755215 -38.411657 -110.349156 -27.473193 11.304264 -18.264331 0.000000 0.000000 0.000000 7.125000 0.000000 0.000000 0.403693 9.576078 0.330912
-0.319267 17.347392 -0.262759 -1.838250 3.520111 -0.783318 0.000000 0.000000 0.000000 -16.864557 -16.071356 4.630457 0.875760 5.966204 16.686379 0.777224 1.129530 -17.100819 0.736386 -5.481557 -15.287383 0.000000 0.000000 0.000000 24.356200 8.815286 9.454524 -0.171918 -2.671135 7.364321 0.111749 -11.618467 -14.862959 -0.375108 3.933650 -10.889950 0.711560 -0.188341 -1.415121 -5.553291 -0.282016 -1.522767 -6.157976 -0.178799 -0.806127 -19.509417 -11.618646 -13.239090 3.809155 -12.466814 17.190247 2.733716 -6.784213 9.099725 0.000000 0.000000 0.000000 63.562425 -28.824790 -3.884731 149.299216 -41.486558 108.128902 18.956044 14.061336 -10.457632 0.000000 0.000000 0.000000 -7.125000 0.000000 0.000000 -7.167955 40.918424 -0.725710 0.000000 0.000000 0.000000 -99.016493 -9.920837 -5.828231 -152.785951 -38.382515 -110.368295 -27.423562 11.396084 -18.093911 0.000000 0.000000 0.000000 7.125000 0.000000 0.000000 0.417236 9.771677 0.340346
-0.319153 17.350844 -0.259198 -1.779923 3.511493 -0.733399 0.000000 0.000000 0.000000 -16.952117 -16.172849 4.753109 0.856775 5.902804 16.502674 0.762348 1.393890 -17.055682 0.859331 -5.901742 -16.502311 0.000000 0.000000 0.000000 24.285209 8.817207 9.524987 -0.163448 -2.604632 7.179830 0.118662 -11.666368 -14.827726 -0.385576 3.987182 -11.040554 0.659145 -0.153257 -1.467519 -5.601545 -0.232637 -1.504333 -6.178852 -0.152556 -0.752107 -19.566958 -11.674196 -13.228694 3.899693 -12.551626 17.166724 2.759430 -6.818004 9.109632 0.000000 0.000000 0.000000 63.627969 -28.961473 -3.966233 149.271214 -41.509934 108.110276 19.147324 13.855623 -10.412470 0.000000 0.000000 0.000000 -7.125000 0.000000 0.000000 -6.992780 40.888472 -0.712936 0.000000 0.000000 0.000000 -99.061564 -9.864541 -5.920812 -152.841283 -38.330106 -110.402635 -27.431508 11.352609 -18.009128 0.000000 0.000000 0.000000 7.125000 0.000000 0.000000 0.402928 9.863396 0.327974
-0.318928 17.354672 -0.255548 -1.646169 3.552796 -0.672970 0.000000 0.000000 0.000000 -17.127868 -16.267262 4.851229 0.838897 5.842452 16.328041 0.741567 1.830304 -17.029167 1.068414 -6.570692 -18.449720 0.000000 0.000000 0.000000 24.116476 8.791127 9.534252 -0.158412 -2.564499 7.068418 0.113162 -11.621115 -14.844856 -0.366540 3.889015 -10.764561 0.522801 -0.144304 -1.529683 -5.656479 -0.215722 -1.456706 -6.158656 -0.140782 -0.665878 -19.633898 -11.754216 -13.372445 3.945246 -12.623495 17.172809 2.764614 -6.848182 9.153307 0.000000 0.000000 0.000000 63.668587 -29.082900 -3.981162 149.237932 -41.537759 108.088250 19.407078 13.713590 -10.377718 0.000000 0.000000 0.000000 -7.125000 0.000000 0.000000 -6.759586 40.875392 -0.691119 0.000000 0.000000 0.000000 -99.078275 -9.850419 -5.949244 -152.779408 -38.388757 -110.364256 -27.744978 11.396364 -18.009462 0.000000 0.000000 0.000000 7.125000 0.000000 0.000000 0.198890 9.809825 0.162081
